%
M48
M72
T01C0.0090
T02C0.0138
T03C0.0197
T04C0.0320
T05C0.0335
T06C0.0350
T07C0.0354
T08C0.0360
T09C0.0364
T10C0.0394
T11C0.0400
T12C0.0472
T13C0.0512
T14C0.0551
T15C0.0591
T16C0.0630
T17C0.0760
T18C0.0787
T19C0.1181
T20C0.1260
T21C0.1280
T22C0.1378
%
T01
X9355Y17037
X9885Y16787
X9375Y19627
X8875Y19627
X6295Y20367
X3855Y21157
X11435Y23177
X11365Y23697
X11471Y24913
X12554Y25405
X12685Y25757
X12849Y24125
X15999Y24519
X16705Y24057
X16884Y25109
X16491Y25503
X17770Y25503
X18275Y25587
X18755Y25995
X19050Y26291
X19444Y26586
X20723Y27324
X22298Y27373
X22052Y25011
X22593Y24076
X22888Y24076
X23184Y24076
X23577Y24076
X23873Y24076
X25047Y24020
X25447Y24420
X25743Y24716
X26235Y23731
X27504Y25071
X26405Y26854
X26432Y27226
X27957Y28653
X27760Y29046
X28110Y30261
X28597Y30080
X27268Y31113
X27071Y30917
X26875Y30720
X26678Y30523
X25743Y32294
X25447Y32491
X25152Y32688
X24660Y33131
X24857Y33328
X25054Y33574
X25251Y33771
X25644Y33574
X25447Y34312
X25251Y35149
X25054Y35346
X24857Y35543
X24660Y35739
X23873Y35346
X22495Y35641
X21904Y36379
X20920Y36478
X22495Y34017
X22298Y33180
X21855Y32885
X21314Y33574
X20920Y32688
X19542Y31113
X19247Y31015
X19050Y31999
X19050Y32787
X18755Y33869
X17573Y32590
X17180Y32639
X16491Y32491
X17426Y31704
X17869Y32294
X17524Y29785
X17180Y28800
X17520Y26855
X18066Y24913
X17967Y24322
X17180Y22587
X15475Y19737
X14825Y19487
X14575Y18997
X14765Y17597
X15325Y17517
X19432Y18840
X21117Y19737
X21185Y19347
X22575Y19357
X25890Y19357
X26806Y20090
X28203Y22058
X27810Y22747
X27957Y23338
X29894Y20447
X30172Y19991
X29778Y19598
X34084Y18921
X34955Y21937
X36176Y24322
X32042Y25071
X29965Y27729
X24660Y27767
X24463Y28751
X24168Y29046
X23774Y29932
X22299Y30769
X21215Y30818
X20724Y30523
X21314Y30129
X24070Y31704
X24266Y31999
X24660Y31999
X24857Y31704
X26432Y33131
X26678Y33279
X27071Y33574
X27268Y33771
X26875Y34017
X27810Y35247
X27852Y37138
X28302Y37511
X29877Y38003
X30172Y37806
X29286Y39184
X29089Y39381
X28597Y40070
X28400Y40759
X27770Y40661
X26825Y38889
X25447Y36428
X25644Y35789
X26136Y35543
X23577Y37511
X19345Y38692
X18755Y38495
X18558Y38298
X18262Y38397
X18016Y38003
X18361Y37905
X17377Y37905
X18016Y38938
X17770Y39676
X17573Y39873
X17475Y40218
X16983Y40218
X16786Y40021
X16589Y39824
X17377Y39480
X18459Y40169
X19050Y40464
X19296Y40661
X19050Y42137
X19247Y42531
X18509Y42974
X18312Y42728
X16916Y42974
X17180Y40956
X14621Y43121
X14621Y44499
X14746Y45321
X11963Y47698
X8026Y47550
X6156Y44745
X7042Y43121
X6353Y42334
X6156Y42531
X4680Y42137
X5664Y40267
X6058Y39972
X6255Y40562
X7140Y38692
X5959Y38298
X5073Y38495
X4778Y38102
X4581Y38791
X3704Y39159
X4975Y35395
X4680Y35198
X5566Y35592
X5861Y35789
X8234Y34173
X8234Y31607
X8875Y30887
X9503Y30720
X12554Y31802
X14172Y32705
X14129Y33919
X15802Y34214
X16983Y35985
X17278Y35887
X16786Y36281
X16589Y36773
X12554Y40070
X9749Y40710
X8531Y40549
X8075Y40169
X8531Y42825
X9751Y42801
X4455Y44434
X11963Y53152
X17424Y45320
X21806Y45287
X22003Y45090
X22199Y44893
X21904Y44007
X21707Y43712
X22101Y43712
X22692Y44007
X23577Y43712
X23965Y43939
X24266Y44007
X24463Y43712
X24660Y44007
X25152Y44647
X25092Y45680
X24660Y45926
X23922Y44352
X24463Y42580
X24266Y42383
X24070Y42186
X23085Y42334
X21510Y42137
X23492Y47728
X24316Y47993
X24463Y47747
X24266Y48535
X24060Y48731
X25085Y48336
X25692Y47747
X26333Y48731
X27908Y50798
X28203Y51389
X28499Y52472
X29188Y48535
X29089Y47944
X31205Y47157
X31451Y47452
X28400Y45287
X28105Y45090
X27810Y44893
X29975Y40464
X40605Y24322
X42672Y23141
X45428Y22747
X42004Y18924
X21215Y23830
X20625Y23928
X20723Y22846
X3794Y35001
X18016Y61478
X17820Y63840
X23833Y63839
X24168Y61527
T02
X25645Y62287
X26038Y63495
X26432Y63495
X27080Y62688
X27729Y63564
X27729Y63860
X28055Y63860
X28055Y63564
X28499Y63594
X28696Y63791
X31142Y62592
X33223Y64283
X33617Y64283
X34010Y64283
X31142Y65742
X28686Y66749
X28461Y66508
X28072Y66716
X28072Y67011
X27737Y67011
X27737Y66716
X26386Y66227
X25992Y66227
X23963Y63238
X22191Y63238
X20813Y63238
X18451Y63140
X17368Y63140
X16285Y63140
X16285Y61663
X17368Y61663
X17368Y60187
X18451Y60187
X18352Y59400
X18352Y58908
X17368Y58612
X16285Y58612
X16285Y60187
X14768Y62068
X14317Y63140
X13136Y63140
X13136Y61959
X11955Y61959
X10774Y61959
X10192Y60050
X9503Y57294
X9503Y56802
X9503Y56212
X8814Y56212
X8814Y56802
X8814Y57294
X8026Y57294
X8026Y56802
X9798Y54932
X9798Y54539
X10192Y54539
X10585Y54539
X10585Y54932
X10192Y54932
X10192Y54145
X10585Y54145
X10979Y54145
X10979Y54539
X10979Y54932
X9798Y54145
X8814Y54342
X8814Y53948
X8814Y53554
X8814Y53161
X8420Y53161
X8420Y53554
X8026Y53554
X8026Y53161
X7633Y53161
X7633Y53554
X7633Y53948
X8026Y53948
X8026Y54342
X7633Y54342
X7239Y53161
X6845Y53161
X8420Y53948
X8420Y54342
X10100Y52964
X10510Y52962
X10369Y57166
X10667Y57166
X16285Y57037
X17368Y57037
X18746Y56545
X18746Y55167
X18746Y53789
X17368Y53888
X16285Y53888
X16285Y55463
X17368Y55463
X20468Y52817
X20483Y50960
X21197Y50306
X21667Y48846
X20526Y48043
X20065Y48047
X19801Y47198
X18923Y47501
X18923Y46811
X17561Y47030
X17069Y47030
X16577Y47030
X16085Y47030
X15593Y47030
X15593Y47620
X16085Y47620
X16577Y47620
X17069Y47620
X17561Y47620
X17561Y48211
X17069Y48211
X16577Y48211
X16085Y48211
X15593Y48211
X15593Y48802
X16085Y48802
X16577Y48802
X17069Y48802
X17561Y48802
X17561Y49392
X17069Y49392
X16577Y49392
X16085Y49392
X15593Y49392
X14805Y49392
X14719Y49765
X14805Y48802
X14805Y48211
X14805Y47620
X15593Y46439
X16085Y46439
X16577Y46439
X17069Y46439
X17561Y46439
X18825Y45151
X18695Y44210
X19811Y45138
X20006Y44413
X20393Y43811
X20301Y43232
X21279Y44782
X20729Y45456
X22052Y46517
X22366Y46517
X23343Y46580
X25045Y46506
X25447Y46074
X26076Y46387
X26813Y45706
X27108Y46395
X26768Y47736
X27604Y48868
X28884Y48868
X30163Y48868
X30163Y50246
X28884Y50246
X27604Y50246
X27219Y50798
X26795Y50798
X26325Y50345
X26030Y51132
X26226Y53002
X27604Y53002
X27908Y53456
X28203Y53751
X28499Y53948
X28884Y53002
X30163Y53002
X30163Y51624
X28884Y51624
X27604Y51624
X30566Y54440
X30369Y54735
X29671Y55266
X30566Y55888
X31065Y56737
X29671Y56545
X29671Y57726
X28195Y57726
X28195Y56545
X27003Y55922
X27020Y55202
X28195Y55266
X25417Y55188
X25417Y55917
X25417Y56606
X23766Y56644
X23766Y55266
X23520Y53839
X24209Y53839
X24209Y53051
X23520Y53051
X21652Y54601
X22341Y55192
X22337Y55912
X20666Y55909
X20655Y56617
X20657Y55200
X22781Y58908
X23274Y58908
X27112Y60433
X27080Y61113
X17368Y52313
X16285Y52313
X16440Y50805
X16154Y50140
X13314Y45083
X11936Y44099
X12002Y43422
X11751Y43190
X11510Y43422
X10558Y44197
X11345Y45083
X9574Y45083
X8688Y44197
X7802Y45083
X6818Y44197
X5340Y41854
X4981Y40757
X4356Y40771
X4839Y39481
X4356Y39295
X5815Y39490
X4356Y37819
X4356Y36096
X4258Y34374
X4258Y33881
X4258Y33389
X4258Y32897
X4848Y32897
X4848Y33389
X4848Y33881
X4848Y34374
X5439Y34374
X5439Y33881
X5439Y33389
X5439Y32897
X5439Y32405
X6029Y32405
X6029Y32897
X6029Y33389
X6029Y33881
X6029Y34374
X6620Y34374
X6620Y33881
X6620Y33389
X6620Y32897
X6620Y32405
X7210Y32405
X7210Y32897
X7210Y33389
X7210Y33881
X7210Y34374
X6915Y36096
X8490Y36096
X10065Y36096
X11640Y36096
X13411Y36096
X14275Y36546
X15183Y36096
X17341Y34236
X17177Y33262
X14362Y33280
X14175Y32032
X14076Y30266
X14722Y29397
X14076Y28888
X14076Y27510
X12444Y27627
X12502Y28888
X12502Y30266
X10730Y30266
X10730Y28888
X9968Y28184
X10730Y27313
X9968Y26684
X8628Y25229
X7893Y27026
X6118Y27894
X5895Y26937
X5632Y26005
X6552Y24715
X4585Y22587
X2352Y24969
X2352Y25559
X2771Y29715
X2771Y30208
X2771Y30700
X2191Y31716
X2191Y32504
X2191Y33291
X2191Y34078
X3105Y33968
X3105Y34263
X4258Y31519
X5439Y31618
X6029Y31618
X5122Y30021
X9081Y32901
X10054Y32913
X10050Y31750
X10484Y33951
X10484Y34345
X11961Y34247
X15149Y39183
X15159Y39773
X16127Y39762
X16127Y39196
X18106Y39228
X19114Y39185
X20567Y39277
X19114Y41203
X18029Y41050
X14986Y41214
X14986Y41756
X20229Y33755
X23282Y35165
X23271Y36098
X22831Y37555
X25588Y38557
X26753Y39518
X27057Y39826
X28098Y39681
X28098Y38557
X27057Y38399
X27469Y37263
X27469Y36968
X30084Y37219
X30076Y36298
X31402Y36428
X31648Y37019
X30931Y34866
X30931Y34226
X30118Y30964
X29483Y28257
X31747Y27373
X32560Y26674
X33814Y27373
X34838Y26704
X36908Y27372
X37795Y26043
X38889Y26759
X37795Y24074
X36908Y21127
X35575Y21127
X34342Y20126
X32767Y21388
X30539Y21243
X31536Y18939
X31685Y17747
X31182Y17632
X29006Y17639
X25984Y16988
X22888Y17054
X20329Y17448
X18098Y17124
X16325Y17587
X17261Y20064
X18361Y21157
X18845Y20667
X20299Y21124
X20101Y22367
X18048Y22223
X16115Y23057
X14980Y22587
X14986Y21639
X13853Y21877
X12672Y21877
X12768Y20744
X11075Y22587
X12323Y23526
X12672Y23058
X13458Y19234
X13322Y17637
X7908Y20754
X4893Y17754
X2478Y17744
X16250Y27617
X17126Y27027
X17802Y28257
X16272Y29397
X16951Y30330
X20059Y30164
X21669Y29774
X19906Y28257
X21018Y27029
X21628Y26251
X22356Y27046
X22303Y24648
X21484Y24243
X22790Y22587
X24315Y23175
X23817Y21156
X23534Y20814
X21917Y20746
X18215Y24605
X26409Y26544
X27282Y25822
X26796Y24626
X27071Y23175
X28783Y24120
X29482Y23520
X30270Y23520
X33509Y24329
X36566Y19382
X37997Y19361
X37851Y20086
X39879Y19922
X39961Y16594
X41437Y16594
X43172Y18941
X43663Y19931
X44022Y19931
X44362Y19931
X45950Y18916
X46510Y19893
X46464Y21694
X43645Y21718
X44195Y18027
X43701Y16594
X46260Y16594
X38386Y16594
X36221Y16594
X26748Y41313
X27057Y41647
X27388Y42149
X28147Y41650
X28412Y42549
X28569Y43626
X28175Y43626
X27388Y43921
X26600Y43626
X26600Y42937
X25050Y42592
X25180Y43830
X25447Y44106
X23280Y44100
X22991Y43771
X23277Y44610
X28609Y44518
X28609Y44873
X30360Y44704
X42967Y64283
X43361Y64283
X43755Y64283
X39719Y66743
X39325Y66743
X38932Y66743
X51038Y66743
X51432Y66743
X51825Y66743
X53991Y64283
X54384Y64283
X54778Y64283
X10205Y64917
X3203Y55031
X3203Y54539
X3597Y54539
X3203Y54046
X3014Y50405
X4257Y49933
X6735Y46967
X3093Y45095
X2849Y44472
T03
X22299Y25575
T04
X32593Y29145
X34881Y30720
X34699Y32058
X35881Y32058
X37062Y32058
X36881Y30720
X37593Y29145
X39319Y30031
X40119Y30031
X40818Y32098
X42102Y31552
X42573Y32968
X44345Y33066
X45920Y33043
X47101Y33043
X47102Y31552
X48381Y34543
X48381Y36543
X47101Y38043
X47101Y38751
X45920Y38751
X45920Y38043
X44345Y35066
X42573Y34968
X42573Y36520
X42573Y37320
X40818Y36035
X38818Y36035
X37062Y37058
X35881Y37058
X34699Y37058
X33223Y37035
X32593Y38397
X33223Y39572
X33223Y40372
X34699Y41212
X35881Y41212
X35077Y39972
X37077Y39972
X37062Y41212
X38818Y41054
X40818Y41054
X42573Y42023
X42573Y44023
X42573Y45477
X42573Y46277
X40818Y47255
X38818Y47255
X37593Y48830
X36881Y50405
X37062Y51743
X35881Y51743
X34699Y51743
X34881Y50405
X32593Y48830
X34699Y46212
X35881Y46212
X37062Y46212
X38818Y44991
X40818Y44991
X42672Y48627
X42672Y49427
X42100Y51311
X40818Y51783
X38818Y51783
X39319Y49814
X40119Y49814
X42573Y52751
X44345Y52850
X45920Y52826
X47101Y52826
X47100Y51311
X46806Y49952
X45625Y49952
X48381Y54326
X48381Y56326
X47101Y57826
X47101Y58535
X45920Y58535
X45920Y57826
X44345Y54850
X42573Y54751
X42573Y56107
X42573Y56907
X40818Y55720
X38818Y55720
X37062Y56743
X35881Y56743
X34699Y56743
X33223Y56720
X32593Y58082
X33223Y59257
X33223Y60057
X34699Y60897
X35881Y60897
X37062Y60897
X37077Y59657
X37593Y58082
X39319Y59066
X40119Y59066
X40818Y60838
X38818Y60838
X42573Y61806
X44345Y61511
X44345Y63511
X45920Y63535
X47101Y63535
X48291Y63535
X48291Y62216
X50825Y60149
X52825Y60149
X54581Y60635
X54581Y61435
X53291Y62216
X53291Y63535
X56451Y60582
X54581Y59180
X54581Y57180
X52825Y56212
X52225Y54440
X51425Y54440
X50825Y56212
X56451Y55582
X57829Y57180
X57829Y59180
X46806Y44952
X45625Y44952
X45920Y43751
X47101Y43751
X48281Y43750
X48281Y42531
X50825Y40365
X52825Y40365
X54581Y40753
X54581Y41553
X53281Y42531
X53281Y43750
X56451Y40700
X54581Y39298
X54581Y37298
X52825Y36330
X50825Y36330
X51425Y34165
X52225Y34165
X56451Y35700
X57829Y37298
X57829Y39298
X44345Y41728
X44345Y43728
X40119Y38987
X39319Y38987
X37593Y38397
X33223Y35035
X38818Y32098
X19148Y48200
X19148Y53200
X10979Y63587
X10979Y64387
X33223Y54720
X35077Y59657
X38818Y64775
X40818Y64775
X42573Y65359
X42573Y66159
X42573Y63806
X37062Y65897
X35881Y65897
X34699Y65897
T05
X2392Y45946
X2392Y44037
T06
X6625Y15480
X7625Y15480
X7125Y14480
X8125Y14480
X8625Y15480
X9125Y14480
X9625Y15480
X12625Y14480
X13125Y15480
X13625Y14480
X14625Y14480
X14125Y15480
X15125Y15480
X15625Y14480
X16125Y15480
X6125Y14480
T07
X21961Y15220
X22961Y15220
X29461Y15220
X30461Y15220
T08
X43180Y25397
X44180Y25397
X45180Y25397
T09
X31058Y26192
X17770Y41645
X15949Y41546
X8814Y45976
X28892Y55867
T10
X3020Y28438
X3020Y27060
T11
X21461Y12397
X22461Y12397
X28961Y12397
X29961Y12397
X27416Y21112
X26416Y21112
X26416Y22112
X27416Y22112
X25416Y22112
X25416Y21112
X30664Y37413
X30664Y38413
X30664Y39413
X30664Y40413
X30664Y41413
X30664Y42413
X29581Y49373
X29581Y50373
X29581Y51373
X29581Y52373
T12
X36615Y11999
X37993Y11999
X39371Y11999
X40749Y11999
X42126Y11999
X43504Y11999
X44882Y11999
X46260Y11999
X47638Y11999
X49016Y11999
T13
X57160Y30720
X57160Y33672
X57160Y50602
X57160Y53554
T14
X58617Y52078
X58617Y32196
T15
X3807Y29186
X1720Y29186
X1720Y26312
X3807Y26312
X1211Y43574
X1211Y46409
T16
X2795Y20427
X5551Y20427
T17
X3287Y12263
X3287Y13433
T18
X19961Y13220
X23961Y13220
X27461Y13220
X31461Y13220
T19
X4699Y61881
X3499Y63810
T20
X11668Y59460
X49070Y59460
X49070Y19302
X11668Y19302
T21
X12125Y11980
X10125Y11980
X5625Y11980
X16625Y11980
T22
X5861Y63810
M30
