G75*
%MOIN*%
%OFA0B0*%
%FSLAX24Y24*%
%IPPOS*%
%LPD*%
%AMOC8*
5,1,8,0,0,1.08239X$1,22.5*
%
%ADD10C,0.0000*%
D10*
X002706Y010247D02*
X034699Y010247D01*
X034699Y009309D01*
X034700Y009309D02*
X034702Y009268D01*
X034707Y009228D01*
X034717Y009189D01*
X034730Y009150D01*
X034746Y009113D01*
X034766Y009077D01*
X034789Y009044D01*
X034815Y009013D01*
X034844Y008984D01*
X034875Y008958D01*
X034908Y008935D01*
X034944Y008915D01*
X034981Y008899D01*
X035020Y008886D01*
X035059Y008876D01*
X035099Y008871D01*
X035140Y008869D01*
X050401Y008869D01*
X050442Y008871D01*
X050482Y008876D01*
X050521Y008886D01*
X050560Y008899D01*
X050597Y008915D01*
X050633Y008935D01*
X050666Y008958D01*
X050697Y008984D01*
X050726Y009013D01*
X050752Y009044D01*
X050775Y009077D01*
X050795Y009113D01*
X050811Y009150D01*
X050824Y009189D01*
X050834Y009228D01*
X050839Y009268D01*
X050841Y009309D01*
X050841Y010247D01*
X058472Y010247D01*
X058513Y010249D01*
X058553Y010254D01*
X058592Y010264D01*
X058631Y010277D01*
X058668Y010293D01*
X058704Y010313D01*
X058737Y010336D01*
X058768Y010362D01*
X058797Y010391D01*
X058823Y010422D01*
X058846Y010455D01*
X058866Y010491D01*
X058882Y010528D01*
X058895Y010567D01*
X058905Y010606D01*
X058910Y010646D01*
X058912Y010687D01*
X058912Y029342D01*
X059850Y029342D01*
X059891Y029344D01*
X059931Y029349D01*
X059970Y029359D01*
X060009Y029372D01*
X060046Y029388D01*
X060082Y029408D01*
X060115Y029431D01*
X060146Y029457D01*
X060175Y029486D01*
X060201Y029517D01*
X060224Y029550D01*
X060244Y029586D01*
X060260Y029623D01*
X060273Y029662D01*
X060283Y029701D01*
X060288Y029741D01*
X060290Y029782D01*
X060290Y034610D01*
X060288Y034651D01*
X060283Y034691D01*
X060273Y034730D01*
X060260Y034769D01*
X060244Y034806D01*
X060224Y034842D01*
X060201Y034875D01*
X060175Y034906D01*
X060146Y034935D01*
X060115Y034961D01*
X060082Y034984D01*
X060046Y035004D01*
X060009Y035020D01*
X059970Y035033D01*
X059931Y035043D01*
X059891Y035048D01*
X059850Y035050D01*
X058912Y035050D01*
X058912Y049224D01*
X059850Y049224D01*
X059891Y049226D01*
X059931Y049231D01*
X059970Y049241D01*
X060009Y049254D01*
X060046Y049270D01*
X060082Y049290D01*
X060115Y049313D01*
X060146Y049339D01*
X060175Y049368D01*
X060201Y049399D01*
X060224Y049432D01*
X060244Y049468D01*
X060260Y049505D01*
X060273Y049544D01*
X060283Y049583D01*
X060288Y049623D01*
X060290Y049664D01*
X060290Y054492D01*
X060288Y054533D01*
X060283Y054573D01*
X060273Y054612D01*
X060260Y054651D01*
X060244Y054688D01*
X060224Y054724D01*
X060201Y054757D01*
X060175Y054788D01*
X060146Y054817D01*
X060115Y054843D01*
X060082Y054866D01*
X060046Y054886D01*
X060009Y054902D01*
X059970Y054915D01*
X059931Y054925D01*
X059891Y054930D01*
X059850Y054932D01*
X058912Y054932D01*
X058912Y066979D01*
X058910Y067016D01*
X058904Y067053D01*
X058895Y067089D01*
X058881Y067123D01*
X058864Y067157D01*
X058844Y067188D01*
X058821Y067217D01*
X058795Y067243D01*
X058766Y067266D01*
X058735Y067286D01*
X058701Y067303D01*
X058667Y067317D01*
X058631Y067326D01*
X058594Y067332D01*
X058557Y067334D01*
X002266Y067334D01*
X002225Y067332D01*
X002185Y067327D01*
X002146Y067317D01*
X002107Y067304D01*
X002070Y067288D01*
X002034Y067268D01*
X002001Y067245D01*
X001970Y067219D01*
X001941Y067190D01*
X001915Y067159D01*
X001892Y067126D01*
X001872Y067090D01*
X001856Y067053D01*
X001843Y067014D01*
X001833Y066975D01*
X001828Y066935D01*
X001826Y066894D01*
X001825Y066894D02*
X001825Y065956D01*
X000802Y065956D01*
X000765Y065954D01*
X000728Y065948D01*
X000692Y065939D01*
X000658Y065925D01*
X000625Y065908D01*
X000593Y065888D01*
X000564Y065865D01*
X000538Y065839D01*
X000515Y065810D01*
X000495Y065779D01*
X000478Y065745D01*
X000464Y065711D01*
X000455Y065675D01*
X000449Y065638D01*
X000447Y065601D01*
X000447Y062065D01*
X000448Y062065D02*
X000450Y062024D01*
X000455Y061984D01*
X000465Y061945D01*
X000478Y061906D01*
X000494Y061869D01*
X000514Y061833D01*
X000537Y061800D01*
X000563Y061769D01*
X000592Y061740D01*
X000623Y061714D01*
X000656Y061691D01*
X000692Y061671D01*
X000729Y061655D01*
X000768Y061642D01*
X000807Y061632D01*
X000847Y061627D01*
X000888Y061625D01*
X001825Y061625D01*
X001825Y047846D01*
X000888Y047846D01*
X000888Y047845D02*
X000847Y047843D01*
X000807Y047838D01*
X000768Y047828D01*
X000729Y047815D01*
X000692Y047799D01*
X000656Y047779D01*
X000623Y047756D01*
X000592Y047730D01*
X000563Y047701D01*
X000537Y047670D01*
X000514Y047637D01*
X000494Y047601D01*
X000478Y047564D01*
X000465Y047525D01*
X000455Y047486D01*
X000450Y047446D01*
X000448Y047405D01*
X000447Y047405D02*
X000447Y038246D01*
X000448Y038246D02*
X000450Y038205D01*
X000455Y038165D01*
X000465Y038126D01*
X000478Y038087D01*
X000494Y038050D01*
X000514Y038014D01*
X000537Y037981D01*
X000563Y037950D01*
X000592Y037921D01*
X000623Y037895D01*
X000656Y037872D01*
X000692Y037852D01*
X000729Y037836D01*
X000768Y037823D01*
X000807Y037813D01*
X000847Y037808D01*
X000888Y037806D01*
X001825Y037806D01*
X001825Y031113D01*
X000888Y031113D01*
X000847Y031111D01*
X000807Y031106D01*
X000768Y031096D01*
X000729Y031083D01*
X000692Y031067D01*
X000656Y031047D01*
X000623Y031024D01*
X000592Y030998D01*
X000563Y030969D01*
X000537Y030938D01*
X000514Y030905D01*
X000494Y030869D01*
X000478Y030832D01*
X000465Y030793D01*
X000455Y030754D01*
X000450Y030714D01*
X000448Y030673D01*
X000447Y030673D02*
X000447Y018758D01*
X000448Y018758D02*
X000450Y018717D01*
X000455Y018677D01*
X000465Y018638D01*
X000478Y018599D01*
X000494Y018562D01*
X000514Y018526D01*
X000537Y018493D01*
X000563Y018462D01*
X000592Y018433D01*
X000623Y018407D01*
X000656Y018384D01*
X000692Y018364D01*
X000729Y018348D01*
X000768Y018335D01*
X000807Y018325D01*
X000847Y018320D01*
X000888Y018318D01*
X001825Y018318D01*
X001825Y011128D01*
X001826Y011128D02*
X001828Y011070D01*
X001834Y011013D01*
X001843Y010956D01*
X001856Y010900D01*
X001873Y010845D01*
X001893Y010791D01*
X001917Y010739D01*
X001944Y010688D01*
X001974Y010639D01*
X002008Y010592D01*
X002044Y010548D01*
X002084Y010506D01*
X002126Y010466D01*
X002170Y010430D01*
X002217Y010396D01*
X002266Y010366D01*
X002317Y010339D01*
X002369Y010315D01*
X002423Y010295D01*
X002478Y010278D01*
X002534Y010265D01*
X002591Y010256D01*
X002648Y010250D01*
X002706Y010248D01*
X002907Y012263D02*
X002909Y012301D01*
X002915Y012339D01*
X002924Y012377D01*
X002938Y012413D01*
X002955Y012447D01*
X002975Y012480D01*
X002999Y012511D01*
X003025Y012538D01*
X003054Y012563D01*
X003086Y012585D01*
X003120Y012604D01*
X003155Y012619D01*
X003192Y012631D01*
X003229Y012639D01*
X003268Y012643D01*
X003306Y012643D01*
X003345Y012639D01*
X003382Y012631D01*
X003419Y012619D01*
X003454Y012604D01*
X003488Y012585D01*
X003520Y012563D01*
X003549Y012538D01*
X003575Y012511D01*
X003599Y012480D01*
X003619Y012447D01*
X003636Y012413D01*
X003650Y012377D01*
X003659Y012339D01*
X003665Y012301D01*
X003667Y012263D01*
X003665Y012225D01*
X003659Y012187D01*
X003650Y012149D01*
X003636Y012113D01*
X003619Y012079D01*
X003599Y012046D01*
X003575Y012015D01*
X003549Y011988D01*
X003520Y011963D01*
X003488Y011941D01*
X003454Y011922D01*
X003419Y011907D01*
X003382Y011895D01*
X003345Y011887D01*
X003306Y011883D01*
X003268Y011883D01*
X003229Y011887D01*
X003192Y011895D01*
X003155Y011907D01*
X003120Y011922D01*
X003086Y011941D01*
X003054Y011963D01*
X003025Y011988D01*
X002999Y012015D01*
X002975Y012046D01*
X002955Y012079D01*
X002938Y012113D01*
X002924Y012149D01*
X002915Y012187D01*
X002909Y012225D01*
X002907Y012263D01*
X002907Y013433D02*
X002909Y013471D01*
X002915Y013509D01*
X002924Y013547D01*
X002938Y013583D01*
X002955Y013617D01*
X002975Y013650D01*
X002999Y013681D01*
X003025Y013708D01*
X003054Y013733D01*
X003086Y013755D01*
X003120Y013774D01*
X003155Y013789D01*
X003192Y013801D01*
X003229Y013809D01*
X003268Y013813D01*
X003306Y013813D01*
X003345Y013809D01*
X003382Y013801D01*
X003419Y013789D01*
X003454Y013774D01*
X003488Y013755D01*
X003520Y013733D01*
X003549Y013708D01*
X003575Y013681D01*
X003599Y013650D01*
X003619Y013617D01*
X003636Y013583D01*
X003650Y013547D01*
X003659Y013509D01*
X003665Y013471D01*
X003667Y013433D01*
X003665Y013395D01*
X003659Y013357D01*
X003650Y013319D01*
X003636Y013283D01*
X003619Y013249D01*
X003599Y013216D01*
X003575Y013185D01*
X003549Y013158D01*
X003520Y013133D01*
X003488Y013111D01*
X003454Y013092D01*
X003419Y013077D01*
X003382Y013065D01*
X003345Y013057D01*
X003306Y013053D01*
X003268Y013053D01*
X003229Y013057D01*
X003192Y013065D01*
X003155Y013077D01*
X003120Y013092D01*
X003086Y013111D01*
X003054Y013133D01*
X003025Y013158D01*
X002999Y013185D01*
X002975Y013216D01*
X002955Y013249D01*
X002938Y013283D01*
X002924Y013319D01*
X002915Y013357D01*
X002909Y013395D01*
X002907Y013433D01*
X004985Y011980D02*
X004987Y012030D01*
X004993Y012080D01*
X005003Y012129D01*
X005016Y012178D01*
X005034Y012225D01*
X005055Y012271D01*
X005079Y012314D01*
X005107Y012356D01*
X005138Y012396D01*
X005172Y012433D01*
X005209Y012467D01*
X005249Y012498D01*
X005291Y012526D01*
X005334Y012550D01*
X005380Y012571D01*
X005427Y012589D01*
X005476Y012602D01*
X005525Y012612D01*
X005575Y012618D01*
X005625Y012620D01*
X005675Y012618D01*
X005725Y012612D01*
X005774Y012602D01*
X005823Y012589D01*
X005870Y012571D01*
X005916Y012550D01*
X005959Y012526D01*
X006001Y012498D01*
X006041Y012467D01*
X006078Y012433D01*
X006112Y012396D01*
X006143Y012356D01*
X006171Y012314D01*
X006195Y012271D01*
X006216Y012225D01*
X006234Y012178D01*
X006247Y012129D01*
X006257Y012080D01*
X006263Y012030D01*
X006265Y011980D01*
X006263Y011930D01*
X006257Y011880D01*
X006247Y011831D01*
X006234Y011782D01*
X006216Y011735D01*
X006195Y011689D01*
X006171Y011646D01*
X006143Y011604D01*
X006112Y011564D01*
X006078Y011527D01*
X006041Y011493D01*
X006001Y011462D01*
X005959Y011434D01*
X005916Y011410D01*
X005870Y011389D01*
X005823Y011371D01*
X005774Y011358D01*
X005725Y011348D01*
X005675Y011342D01*
X005625Y011340D01*
X005575Y011342D01*
X005525Y011348D01*
X005476Y011358D01*
X005427Y011371D01*
X005380Y011389D01*
X005334Y011410D01*
X005291Y011434D01*
X005249Y011462D01*
X005209Y011493D01*
X005172Y011527D01*
X005138Y011564D01*
X005107Y011604D01*
X005079Y011646D01*
X005055Y011689D01*
X005034Y011735D01*
X005016Y011782D01*
X005003Y011831D01*
X004993Y011880D01*
X004987Y011930D01*
X004985Y011980D01*
X009485Y011980D02*
X009487Y012030D01*
X009493Y012080D01*
X009503Y012129D01*
X009516Y012178D01*
X009534Y012225D01*
X009555Y012271D01*
X009579Y012314D01*
X009607Y012356D01*
X009638Y012396D01*
X009672Y012433D01*
X009709Y012467D01*
X009749Y012498D01*
X009791Y012526D01*
X009834Y012550D01*
X009880Y012571D01*
X009927Y012589D01*
X009976Y012602D01*
X010025Y012612D01*
X010075Y012618D01*
X010125Y012620D01*
X010175Y012618D01*
X010225Y012612D01*
X010274Y012602D01*
X010323Y012589D01*
X010370Y012571D01*
X010416Y012550D01*
X010459Y012526D01*
X010501Y012498D01*
X010541Y012467D01*
X010578Y012433D01*
X010612Y012396D01*
X010643Y012356D01*
X010671Y012314D01*
X010695Y012271D01*
X010716Y012225D01*
X010734Y012178D01*
X010747Y012129D01*
X010757Y012080D01*
X010763Y012030D01*
X010765Y011980D01*
X010763Y011930D01*
X010757Y011880D01*
X010747Y011831D01*
X010734Y011782D01*
X010716Y011735D01*
X010695Y011689D01*
X010671Y011646D01*
X010643Y011604D01*
X010612Y011564D01*
X010578Y011527D01*
X010541Y011493D01*
X010501Y011462D01*
X010459Y011434D01*
X010416Y011410D01*
X010370Y011389D01*
X010323Y011371D01*
X010274Y011358D01*
X010225Y011348D01*
X010175Y011342D01*
X010125Y011340D01*
X010075Y011342D01*
X010025Y011348D01*
X009976Y011358D01*
X009927Y011371D01*
X009880Y011389D01*
X009834Y011410D01*
X009791Y011434D01*
X009749Y011462D01*
X009709Y011493D01*
X009672Y011527D01*
X009638Y011564D01*
X009607Y011604D01*
X009579Y011646D01*
X009555Y011689D01*
X009534Y011735D01*
X009516Y011782D01*
X009503Y011831D01*
X009493Y011880D01*
X009487Y011930D01*
X009485Y011980D01*
X011485Y011980D02*
X011487Y012030D01*
X011493Y012080D01*
X011503Y012129D01*
X011516Y012178D01*
X011534Y012225D01*
X011555Y012271D01*
X011579Y012314D01*
X011607Y012356D01*
X011638Y012396D01*
X011672Y012433D01*
X011709Y012467D01*
X011749Y012498D01*
X011791Y012526D01*
X011834Y012550D01*
X011880Y012571D01*
X011927Y012589D01*
X011976Y012602D01*
X012025Y012612D01*
X012075Y012618D01*
X012125Y012620D01*
X012175Y012618D01*
X012225Y012612D01*
X012274Y012602D01*
X012323Y012589D01*
X012370Y012571D01*
X012416Y012550D01*
X012459Y012526D01*
X012501Y012498D01*
X012541Y012467D01*
X012578Y012433D01*
X012612Y012396D01*
X012643Y012356D01*
X012671Y012314D01*
X012695Y012271D01*
X012716Y012225D01*
X012734Y012178D01*
X012747Y012129D01*
X012757Y012080D01*
X012763Y012030D01*
X012765Y011980D01*
X012763Y011930D01*
X012757Y011880D01*
X012747Y011831D01*
X012734Y011782D01*
X012716Y011735D01*
X012695Y011689D01*
X012671Y011646D01*
X012643Y011604D01*
X012612Y011564D01*
X012578Y011527D01*
X012541Y011493D01*
X012501Y011462D01*
X012459Y011434D01*
X012416Y011410D01*
X012370Y011389D01*
X012323Y011371D01*
X012274Y011358D01*
X012225Y011348D01*
X012175Y011342D01*
X012125Y011340D01*
X012075Y011342D01*
X012025Y011348D01*
X011976Y011358D01*
X011927Y011371D01*
X011880Y011389D01*
X011834Y011410D01*
X011791Y011434D01*
X011749Y011462D01*
X011709Y011493D01*
X011672Y011527D01*
X011638Y011564D01*
X011607Y011604D01*
X011579Y011646D01*
X011555Y011689D01*
X011534Y011735D01*
X011516Y011782D01*
X011503Y011831D01*
X011493Y011880D01*
X011487Y011930D01*
X011485Y011980D01*
X015985Y011980D02*
X015987Y012030D01*
X015993Y012080D01*
X016003Y012129D01*
X016016Y012178D01*
X016034Y012225D01*
X016055Y012271D01*
X016079Y012314D01*
X016107Y012356D01*
X016138Y012396D01*
X016172Y012433D01*
X016209Y012467D01*
X016249Y012498D01*
X016291Y012526D01*
X016334Y012550D01*
X016380Y012571D01*
X016427Y012589D01*
X016476Y012602D01*
X016525Y012612D01*
X016575Y012618D01*
X016625Y012620D01*
X016675Y012618D01*
X016725Y012612D01*
X016774Y012602D01*
X016823Y012589D01*
X016870Y012571D01*
X016916Y012550D01*
X016959Y012526D01*
X017001Y012498D01*
X017041Y012467D01*
X017078Y012433D01*
X017112Y012396D01*
X017143Y012356D01*
X017171Y012314D01*
X017195Y012271D01*
X017216Y012225D01*
X017234Y012178D01*
X017247Y012129D01*
X017257Y012080D01*
X017263Y012030D01*
X017265Y011980D01*
X017263Y011930D01*
X017257Y011880D01*
X017247Y011831D01*
X017234Y011782D01*
X017216Y011735D01*
X017195Y011689D01*
X017171Y011646D01*
X017143Y011604D01*
X017112Y011564D01*
X017078Y011527D01*
X017041Y011493D01*
X017001Y011462D01*
X016959Y011434D01*
X016916Y011410D01*
X016870Y011389D01*
X016823Y011371D01*
X016774Y011358D01*
X016725Y011348D01*
X016675Y011342D01*
X016625Y011340D01*
X016575Y011342D01*
X016525Y011348D01*
X016476Y011358D01*
X016427Y011371D01*
X016380Y011389D01*
X016334Y011410D01*
X016291Y011434D01*
X016249Y011462D01*
X016209Y011493D01*
X016172Y011527D01*
X016138Y011564D01*
X016107Y011604D01*
X016079Y011646D01*
X016055Y011689D01*
X016034Y011735D01*
X016016Y011782D01*
X016003Y011831D01*
X015993Y011880D01*
X015987Y011930D01*
X015985Y011980D01*
X011038Y019302D02*
X011040Y019352D01*
X011046Y019402D01*
X011056Y019451D01*
X011070Y019499D01*
X011087Y019546D01*
X011108Y019591D01*
X011133Y019635D01*
X011161Y019676D01*
X011193Y019715D01*
X011227Y019752D01*
X011264Y019786D01*
X011304Y019816D01*
X011346Y019843D01*
X011390Y019867D01*
X011436Y019888D01*
X011483Y019904D01*
X011531Y019917D01*
X011581Y019926D01*
X011630Y019931D01*
X011681Y019932D01*
X011731Y019929D01*
X011780Y019922D01*
X011829Y019911D01*
X011877Y019896D01*
X011923Y019878D01*
X011968Y019856D01*
X012011Y019830D01*
X012052Y019801D01*
X012091Y019769D01*
X012127Y019734D01*
X012159Y019696D01*
X012189Y019656D01*
X012216Y019613D01*
X012239Y019569D01*
X012258Y019523D01*
X012274Y019475D01*
X012286Y019426D01*
X012294Y019377D01*
X012298Y019327D01*
X012298Y019277D01*
X012294Y019227D01*
X012286Y019178D01*
X012274Y019129D01*
X012258Y019081D01*
X012239Y019035D01*
X012216Y018991D01*
X012189Y018948D01*
X012159Y018908D01*
X012127Y018870D01*
X012091Y018835D01*
X012052Y018803D01*
X012011Y018774D01*
X011968Y018748D01*
X011923Y018726D01*
X011877Y018708D01*
X011829Y018693D01*
X011780Y018682D01*
X011731Y018675D01*
X011681Y018672D01*
X011630Y018673D01*
X011581Y018678D01*
X011531Y018687D01*
X011483Y018700D01*
X011436Y018716D01*
X011390Y018737D01*
X011346Y018761D01*
X011304Y018788D01*
X011264Y018818D01*
X011227Y018852D01*
X011193Y018889D01*
X011161Y018928D01*
X011133Y018969D01*
X011108Y019013D01*
X011087Y019058D01*
X011070Y019105D01*
X011056Y019153D01*
X011046Y019202D01*
X011040Y019252D01*
X011038Y019302D01*
X005236Y020427D02*
X005238Y020462D01*
X005244Y020497D01*
X005254Y020531D01*
X005267Y020564D01*
X005284Y020595D01*
X005305Y020623D01*
X005328Y020650D01*
X005355Y020673D01*
X005383Y020694D01*
X005414Y020711D01*
X005447Y020724D01*
X005481Y020734D01*
X005516Y020740D01*
X005551Y020742D01*
X005586Y020740D01*
X005621Y020734D01*
X005655Y020724D01*
X005688Y020711D01*
X005719Y020694D01*
X005747Y020673D01*
X005774Y020650D01*
X005797Y020623D01*
X005818Y020595D01*
X005835Y020564D01*
X005848Y020531D01*
X005858Y020497D01*
X005864Y020462D01*
X005866Y020427D01*
X005864Y020392D01*
X005858Y020357D01*
X005848Y020323D01*
X005835Y020290D01*
X005818Y020259D01*
X005797Y020231D01*
X005774Y020204D01*
X005747Y020181D01*
X005719Y020160D01*
X005688Y020143D01*
X005655Y020130D01*
X005621Y020120D01*
X005586Y020114D01*
X005551Y020112D01*
X005516Y020114D01*
X005481Y020120D01*
X005447Y020130D01*
X005414Y020143D01*
X005383Y020160D01*
X005355Y020181D01*
X005328Y020204D01*
X005305Y020231D01*
X005284Y020259D01*
X005267Y020290D01*
X005254Y020323D01*
X005244Y020357D01*
X005238Y020392D01*
X005236Y020427D01*
X002480Y020427D02*
X002482Y020462D01*
X002488Y020497D01*
X002498Y020531D01*
X002511Y020564D01*
X002528Y020595D01*
X002549Y020623D01*
X002572Y020650D01*
X002599Y020673D01*
X002627Y020694D01*
X002658Y020711D01*
X002691Y020724D01*
X002725Y020734D01*
X002760Y020740D01*
X002795Y020742D01*
X002830Y020740D01*
X002865Y020734D01*
X002899Y020724D01*
X002932Y020711D01*
X002963Y020694D01*
X002991Y020673D01*
X003018Y020650D01*
X003041Y020623D01*
X003062Y020595D01*
X003079Y020564D01*
X003092Y020531D01*
X003102Y020497D01*
X003108Y020462D01*
X003110Y020427D01*
X003108Y020392D01*
X003102Y020357D01*
X003092Y020323D01*
X003079Y020290D01*
X003062Y020259D01*
X003041Y020231D01*
X003018Y020204D01*
X002991Y020181D01*
X002963Y020160D01*
X002932Y020143D01*
X002899Y020130D01*
X002865Y020120D01*
X002830Y020114D01*
X002795Y020112D01*
X002760Y020114D01*
X002725Y020120D01*
X002691Y020130D01*
X002658Y020143D01*
X002627Y020160D01*
X002599Y020181D01*
X002572Y020204D01*
X002549Y020231D01*
X002528Y020259D01*
X002511Y020290D01*
X002498Y020323D01*
X002488Y020357D01*
X002482Y020392D01*
X002480Y020427D01*
X002823Y027060D02*
X002825Y027087D01*
X002831Y027114D01*
X002840Y027140D01*
X002853Y027164D01*
X002869Y027187D01*
X002888Y027206D01*
X002910Y027223D01*
X002934Y027237D01*
X002959Y027247D01*
X002986Y027254D01*
X003013Y027257D01*
X003041Y027256D01*
X003068Y027251D01*
X003094Y027243D01*
X003118Y027231D01*
X003141Y027215D01*
X003162Y027197D01*
X003179Y027176D01*
X003194Y027152D01*
X003205Y027127D01*
X003213Y027101D01*
X003217Y027074D01*
X003217Y027046D01*
X003213Y027019D01*
X003205Y026993D01*
X003194Y026968D01*
X003179Y026944D01*
X003162Y026923D01*
X003141Y026905D01*
X003119Y026889D01*
X003094Y026877D01*
X003068Y026869D01*
X003041Y026864D01*
X003013Y026863D01*
X002986Y026866D01*
X002959Y026873D01*
X002934Y026883D01*
X002910Y026897D01*
X002888Y026914D01*
X002869Y026933D01*
X002853Y026956D01*
X002840Y026980D01*
X002831Y027006D01*
X002825Y027033D01*
X002823Y027060D01*
X002823Y028438D02*
X002825Y028465D01*
X002831Y028492D01*
X002840Y028518D01*
X002853Y028542D01*
X002869Y028565D01*
X002888Y028584D01*
X002910Y028601D01*
X002934Y028615D01*
X002959Y028625D01*
X002986Y028632D01*
X003013Y028635D01*
X003041Y028634D01*
X003068Y028629D01*
X003094Y028621D01*
X003118Y028609D01*
X003141Y028593D01*
X003162Y028575D01*
X003179Y028554D01*
X003194Y028530D01*
X003205Y028505D01*
X003213Y028479D01*
X003217Y028452D01*
X003217Y028424D01*
X003213Y028397D01*
X003205Y028371D01*
X003194Y028346D01*
X003179Y028322D01*
X003162Y028301D01*
X003141Y028283D01*
X003119Y028267D01*
X003094Y028255D01*
X003068Y028247D01*
X003041Y028242D01*
X003013Y028241D01*
X002986Y028244D01*
X002959Y028251D01*
X002934Y028261D01*
X002910Y028275D01*
X002888Y028292D01*
X002869Y028311D01*
X002853Y028334D01*
X002840Y028358D01*
X002831Y028384D01*
X002825Y028411D01*
X002823Y028438D01*
X011038Y059460D02*
X011040Y059510D01*
X011046Y059560D01*
X011056Y059609D01*
X011070Y059657D01*
X011087Y059704D01*
X011108Y059749D01*
X011133Y059793D01*
X011161Y059834D01*
X011193Y059873D01*
X011227Y059910D01*
X011264Y059944D01*
X011304Y059974D01*
X011346Y060001D01*
X011390Y060025D01*
X011436Y060046D01*
X011483Y060062D01*
X011531Y060075D01*
X011581Y060084D01*
X011630Y060089D01*
X011681Y060090D01*
X011731Y060087D01*
X011780Y060080D01*
X011829Y060069D01*
X011877Y060054D01*
X011923Y060036D01*
X011968Y060014D01*
X012011Y059988D01*
X012052Y059959D01*
X012091Y059927D01*
X012127Y059892D01*
X012159Y059854D01*
X012189Y059814D01*
X012216Y059771D01*
X012239Y059727D01*
X012258Y059681D01*
X012274Y059633D01*
X012286Y059584D01*
X012294Y059535D01*
X012298Y059485D01*
X012298Y059435D01*
X012294Y059385D01*
X012286Y059336D01*
X012274Y059287D01*
X012258Y059239D01*
X012239Y059193D01*
X012216Y059149D01*
X012189Y059106D01*
X012159Y059066D01*
X012127Y059028D01*
X012091Y058993D01*
X012052Y058961D01*
X012011Y058932D01*
X011968Y058906D01*
X011923Y058884D01*
X011877Y058866D01*
X011829Y058851D01*
X011780Y058840D01*
X011731Y058833D01*
X011681Y058830D01*
X011630Y058831D01*
X011581Y058836D01*
X011531Y058845D01*
X011483Y058858D01*
X011436Y058874D01*
X011390Y058895D01*
X011346Y058919D01*
X011304Y058946D01*
X011264Y058976D01*
X011227Y059010D01*
X011193Y059047D01*
X011161Y059086D01*
X011133Y059127D01*
X011108Y059171D01*
X011087Y059216D01*
X011070Y059263D01*
X011056Y059311D01*
X011046Y059360D01*
X011040Y059410D01*
X011038Y059460D01*
X048440Y059460D02*
X048442Y059510D01*
X048448Y059560D01*
X048458Y059609D01*
X048472Y059657D01*
X048489Y059704D01*
X048510Y059749D01*
X048535Y059793D01*
X048563Y059834D01*
X048595Y059873D01*
X048629Y059910D01*
X048666Y059944D01*
X048706Y059974D01*
X048748Y060001D01*
X048792Y060025D01*
X048838Y060046D01*
X048885Y060062D01*
X048933Y060075D01*
X048983Y060084D01*
X049032Y060089D01*
X049083Y060090D01*
X049133Y060087D01*
X049182Y060080D01*
X049231Y060069D01*
X049279Y060054D01*
X049325Y060036D01*
X049370Y060014D01*
X049413Y059988D01*
X049454Y059959D01*
X049493Y059927D01*
X049529Y059892D01*
X049561Y059854D01*
X049591Y059814D01*
X049618Y059771D01*
X049641Y059727D01*
X049660Y059681D01*
X049676Y059633D01*
X049688Y059584D01*
X049696Y059535D01*
X049700Y059485D01*
X049700Y059435D01*
X049696Y059385D01*
X049688Y059336D01*
X049676Y059287D01*
X049660Y059239D01*
X049641Y059193D01*
X049618Y059149D01*
X049591Y059106D01*
X049561Y059066D01*
X049529Y059028D01*
X049493Y058993D01*
X049454Y058961D01*
X049413Y058932D01*
X049370Y058906D01*
X049325Y058884D01*
X049279Y058866D01*
X049231Y058851D01*
X049182Y058840D01*
X049133Y058833D01*
X049083Y058830D01*
X049032Y058831D01*
X048983Y058836D01*
X048933Y058845D01*
X048885Y058858D01*
X048838Y058874D01*
X048792Y058895D01*
X048748Y058919D01*
X048706Y058946D01*
X048666Y058976D01*
X048629Y059010D01*
X048595Y059047D01*
X048563Y059086D01*
X048535Y059127D01*
X048510Y059171D01*
X048489Y059216D01*
X048472Y059263D01*
X048458Y059311D01*
X048448Y059360D01*
X048442Y059410D01*
X048440Y059460D01*
X048440Y019302D02*
X048442Y019352D01*
X048448Y019402D01*
X048458Y019451D01*
X048472Y019499D01*
X048489Y019546D01*
X048510Y019591D01*
X048535Y019635D01*
X048563Y019676D01*
X048595Y019715D01*
X048629Y019752D01*
X048666Y019786D01*
X048706Y019816D01*
X048748Y019843D01*
X048792Y019867D01*
X048838Y019888D01*
X048885Y019904D01*
X048933Y019917D01*
X048983Y019926D01*
X049032Y019931D01*
X049083Y019932D01*
X049133Y019929D01*
X049182Y019922D01*
X049231Y019911D01*
X049279Y019896D01*
X049325Y019878D01*
X049370Y019856D01*
X049413Y019830D01*
X049454Y019801D01*
X049493Y019769D01*
X049529Y019734D01*
X049561Y019696D01*
X049591Y019656D01*
X049618Y019613D01*
X049641Y019569D01*
X049660Y019523D01*
X049676Y019475D01*
X049688Y019426D01*
X049696Y019377D01*
X049700Y019327D01*
X049700Y019277D01*
X049696Y019227D01*
X049688Y019178D01*
X049676Y019129D01*
X049660Y019081D01*
X049641Y019035D01*
X049618Y018991D01*
X049591Y018948D01*
X049561Y018908D01*
X049529Y018870D01*
X049493Y018835D01*
X049454Y018803D01*
X049413Y018774D01*
X049370Y018748D01*
X049325Y018726D01*
X049279Y018708D01*
X049231Y018693D01*
X049182Y018682D01*
X049133Y018675D01*
X049083Y018672D01*
X049032Y018673D01*
X048983Y018678D01*
X048933Y018687D01*
X048885Y018700D01*
X048838Y018716D01*
X048792Y018737D01*
X048748Y018761D01*
X048706Y018788D01*
X048666Y018818D01*
X048629Y018852D01*
X048595Y018889D01*
X048563Y018928D01*
X048535Y018969D01*
X048510Y019013D01*
X048489Y019058D01*
X048472Y019105D01*
X048458Y019153D01*
X048448Y019202D01*
X048442Y019252D01*
X048440Y019302D01*
M02*
