%
M48
M72
T01C0.0090
T02C0.0138
T03C0.0197
T04C0.0320
T05C0.0335
T06C0.0350
T07C0.0354
T08C0.0360
T09C0.0364
T10C0.0394
T11C0.0400
T12C0.0472
T13C0.0512
T14C0.0551
T15C0.0591
T16C0.0630
T17C0.0760
T18C0.0787
T19C0.1181
T20C0.1260
T21C0.1280
T22C0.1378
%
T01
X9885Y21511
X9355Y21761
X9375Y24352
X8875Y24352
X6295Y25092
X3855Y25882
X11435Y27902
X11365Y28422
X11471Y29637
X12554Y30129
X12685Y30482
X12849Y28850
X15999Y29243
X16491Y30228
X16884Y29834
X17770Y30228
X18275Y30312
X18755Y30720
X19050Y31015
X19444Y31310
X20723Y32048
X22298Y32098
X22052Y29735
X22593Y28800
X22888Y28800
X23184Y28800
X23577Y28800
X23873Y28800
X25047Y28744
X25447Y29145
X25743Y29440
X26235Y28456
X27504Y29795
X27957Y28062
X27810Y27472
X28203Y26783
X26806Y24814
X25890Y24082
X22575Y24082
X21185Y24072
X21117Y24462
X19432Y23565
X20723Y27570
X20625Y28653
X21215Y28554
X17967Y29046
X18066Y29637
X16705Y28782
X17180Y27312
X15475Y24462
X14825Y24212
X14575Y23722
X14765Y22322
X15325Y22242
X17520Y31579
X17180Y33525
X17524Y34509
X17426Y36428
X17869Y37019
X17573Y37314
X17180Y37363
X16491Y37216
X15802Y38938
X14129Y38643
X14172Y37429
X12554Y36527
X9503Y35444
X8875Y35612
X8234Y36332
X8234Y38898
X5861Y40513
X5566Y40316
X4975Y40119
X4680Y39922
X3794Y39726
X4778Y42826
X5073Y43220
X4581Y43515
X3704Y43883
X5664Y44991
X6058Y44696
X6255Y45287
X7140Y43417
X5959Y43023
X8075Y44893
X8531Y45274
X9749Y45434
X9751Y47526
X8531Y47549
X7042Y47846
X6353Y47058
X6156Y47255
X4680Y46861
X4455Y49159
X6156Y49470
X8026Y52275
X11963Y52422
X14746Y50045
X14621Y49224
X14621Y47846
X16916Y47698
X18312Y47452
X18509Y47698
X19050Y46861
X19247Y47255
X19296Y45385
X19050Y45188
X18459Y44893
X17770Y44401
X17573Y44598
X17475Y44942
X16983Y44942
X16786Y44745
X16589Y44548
X17377Y44204
X18016Y43663
X18262Y43121
X18558Y43023
X18755Y43220
X19345Y43417
X18361Y42629
X18016Y42728
X17377Y42629
X16589Y41497
X16786Y41005
X16983Y40710
X17278Y40611
X18755Y38594
X19050Y37511
X19050Y36724
X19247Y35739
X19542Y35838
X20724Y35247
X21215Y35543
X21314Y34854
X22299Y35493
X21855Y37609
X22298Y37905
X22495Y38741
X21314Y38298
X20920Y37413
X22495Y40365
X21904Y41104
X20920Y41202
X23577Y42235
X24660Y40464
X24857Y40267
X25054Y40070
X25251Y39873
X25644Y40513
X26136Y40267
X25447Y41153
X23873Y40070
X25447Y39037
X25251Y38495
X25054Y38298
X24857Y38052
X24660Y37856
X25152Y37413
X25447Y37216
X25743Y37019
X26432Y37856
X26678Y38003
X27071Y38298
X27268Y38495
X26875Y38741
X25644Y38298
X24660Y36724
X24857Y36428
X24266Y36724
X24070Y36428
X23774Y34657
X24168Y33771
X24463Y33476
X24660Y32491
X26432Y31950
X26405Y31579
X27957Y33377
X27760Y33771
X28110Y34986
X28597Y34804
X27268Y35838
X27071Y35641
X26875Y35444
X26678Y35247
X29965Y32453
X32042Y29795
X34955Y26662
X36176Y29046
X40605Y29046
X42672Y27865
X45428Y27472
X42004Y23649
X34084Y23646
X30172Y24716
X29894Y25172
X29778Y24322
X27810Y39972
X27852Y41862
X28302Y42235
X29877Y42728
X30172Y42531
X29286Y43909
X29089Y44106
X28597Y44794
X28400Y45483
X27770Y45385
X26825Y43613
X24070Y46911
X24266Y47107
X24463Y47304
X24463Y48436
X24266Y48731
X23965Y48663
X23922Y49076
X23577Y48436
X22692Y48731
X22101Y48436
X21904Y48731
X21707Y48436
X22199Y49617
X22003Y49814
X21806Y50011
X23085Y47058
X21510Y46861
X24660Y48731
X25152Y49371
X25092Y50405
X24660Y50651
X24463Y52472
X24316Y52718
X24266Y53259
X24060Y53456
X23492Y52453
X25085Y53060
X25692Y52472
X26333Y53456
X27908Y55523
X28203Y56113
X28499Y57196
X29188Y53259
X29089Y52669
X31205Y51881
X31451Y52176
X28400Y50011
X28105Y49814
X27810Y49617
X29975Y45188
X17424Y50044
X17180Y45680
X12554Y44794
X11963Y57877
X18016Y66202
X17820Y68564
X23833Y68563
X24168Y66251
T02
X25645Y67012
X26038Y68220
X26432Y68220
X27080Y67412
X27729Y68289
X27729Y68584
X28055Y68584
X28055Y68289
X28499Y68318
X28696Y68515
X28461Y71233
X28686Y71474
X28072Y71440
X28072Y71735
X27737Y71735
X27737Y71440
X26386Y70951
X25992Y70951
X23963Y67963
X22191Y67963
X20813Y67963
X18451Y67864
X17368Y67864
X16285Y67864
X16285Y66388
X17368Y66388
X17368Y64911
X18451Y64911
X18352Y64124
X18352Y63632
X17368Y63337
X16285Y63337
X16285Y64911
X14768Y66793
X14317Y67864
X13136Y67864
X13136Y66683
X11955Y66683
X10774Y66683
X10192Y64775
X9503Y62019
X9503Y61527
X9503Y60936
X8814Y60936
X8814Y61527
X8814Y62019
X8026Y62019
X8026Y61527
X8026Y59066
X7633Y59066
X7633Y58672
X8026Y58672
X8026Y58279
X7633Y58279
X7633Y57885
X8026Y57885
X8420Y57885
X8814Y57885
X8814Y58279
X8814Y58672
X8420Y58672
X8420Y58279
X8420Y59066
X8814Y59066
X9798Y58869
X10192Y58869
X10585Y58869
X10979Y58869
X10979Y59263
X10979Y59657
X10585Y59657
X10192Y59657
X10192Y59263
X10585Y59263
X9798Y59263
X9798Y59657
X10100Y57688
X10510Y57686
X7239Y57885
X6845Y57885
X4257Y54658
X3014Y55129
X3203Y58771
X3203Y59263
X3597Y59263
X3203Y59755
X6735Y51692
X7802Y49808
X8688Y48922
X9574Y49808
X10558Y48922
X11345Y49808
X11936Y48823
X12002Y48147
X11751Y47914
X11510Y48147
X13314Y49808
X15593Y51164
X16085Y51164
X16577Y51164
X17069Y51164
X17561Y51164
X17561Y51754
X17069Y51754
X16577Y51754
X16085Y51754
X15593Y51754
X15593Y52345
X16085Y52345
X16577Y52345
X17069Y52345
X17561Y52345
X17561Y52935
X17069Y52935
X16577Y52935
X16085Y52935
X15593Y52935
X15593Y53526
X16085Y53526
X16577Y53526
X17069Y53526
X17561Y53526
X17561Y54117
X17069Y54117
X16577Y54117
X16085Y54117
X15593Y54117
X14805Y54117
X14719Y54489
X14805Y53526
X14805Y52935
X14805Y52345
X16154Y54864
X16440Y55530
X16285Y57037
X17368Y57037
X17368Y58612
X16285Y58612
X16285Y60187
X17368Y60187
X18746Y59892
X18746Y58514
X20468Y57541
X20483Y55685
X21197Y55030
X21667Y53571
X20526Y52767
X20065Y52771
X19801Y51922
X18923Y52226
X18923Y51535
X18825Y49876
X18695Y48934
X19811Y49862
X20006Y49137
X20393Y48535
X20301Y47956
X21279Y49506
X20729Y50181
X22052Y51241
X22366Y51241
X23343Y51304
X23277Y49335
X23280Y48824
X22991Y48496
X25180Y48554
X25447Y48830
X26600Y48350
X26600Y47661
X27388Y46874
X27057Y46371
X26748Y46037
X28147Y46374
X28412Y47274
X28569Y48350
X28175Y48350
X27388Y48645
X28609Y49242
X28609Y49597
X27108Y51120
X26813Y50431
X26076Y51111
X25447Y50798
X25045Y51230
X26768Y52461
X27604Y53593
X28884Y53593
X30163Y53593
X30163Y54971
X28884Y54971
X27604Y54971
X27219Y55523
X26795Y55523
X26325Y55069
X26030Y55856
X27604Y56349
X28884Y56349
X30163Y56349
X30163Y57726
X30566Y59165
X30369Y59460
X29671Y59990
X30566Y60612
X31065Y61462
X29671Y61270
X29671Y62451
X28195Y62451
X28195Y61270
X27003Y60646
X27020Y59926
X28195Y59990
X28499Y58672
X28203Y58476
X27908Y58180
X27604Y57726
X28884Y57726
X26226Y57726
X25417Y59912
X25417Y60641
X25417Y61330
X23766Y61368
X23766Y59990
X23520Y58563
X24209Y58563
X24209Y57776
X23520Y57776
X22341Y59916
X22337Y60637
X21652Y59326
X20657Y59924
X20666Y60633
X20655Y61342
X18746Y61270
X17368Y61762
X16285Y61762
X10667Y61891
X10369Y61891
X10205Y69642
X22781Y63632
X23274Y63632
X27112Y65158
X27080Y65837
X31142Y67317
X33223Y69007
X33617Y69007
X34010Y69007
X31142Y70466
X38932Y71468
X39325Y71468
X39719Y71468
X42967Y69007
X43361Y69007
X43755Y69007
X51038Y71468
X51432Y71468
X51825Y71468
X53991Y69007
X54384Y69007
X54778Y69007
X31648Y41743
X31402Y41153
X30076Y41022
X30084Y41944
X28098Y43281
X27057Y43123
X26753Y44242
X27057Y44550
X28098Y44406
X27469Y41988
X27469Y41693
X25588Y43281
X23271Y40822
X22831Y42279
X23282Y39889
X20229Y38479
X17341Y38960
X17177Y37987
X14362Y38005
X14175Y36757
X14076Y34991
X14722Y34122
X14076Y33613
X14076Y32235
X12444Y32352
X12502Y33613
X12502Y34991
X10730Y34991
X10730Y33613
X9968Y32909
X10730Y32038
X9968Y31409
X8628Y29954
X7893Y31750
X6118Y32619
X5895Y31662
X5632Y30729
X6552Y29439
X4585Y27312
X2352Y29693
X2352Y30284
X2771Y34440
X2771Y34932
X2771Y35424
X2191Y36441
X2191Y37228
X2191Y38015
X2191Y38803
X3105Y38692
X3105Y38987
X4258Y39098
X4258Y38606
X4258Y38114
X4258Y37622
X4848Y37622
X4848Y38114
X4848Y38606
X4848Y39098
X5439Y39098
X5439Y38606
X5439Y38114
X5439Y37622
X5439Y37130
X6029Y37130
X6029Y37622
X6029Y38114
X6029Y38606
X6029Y39098
X6620Y39098
X6620Y38606
X6620Y38114
X6620Y37622
X6620Y37130
X7210Y37130
X7210Y37622
X7210Y38114
X7210Y38606
X7210Y39098
X6915Y40820
X8490Y40820
X10065Y40820
X11640Y40820
X13411Y40820
X14275Y41270
X15183Y40820
X15149Y43908
X15159Y44498
X16127Y44486
X16127Y43921
X14986Y45939
X14986Y46480
X18029Y45774
X19114Y45927
X19114Y43909
X18106Y43952
X20567Y44002
X25050Y47317
X30360Y49429
X30931Y39590
X30931Y38950
X30118Y35689
X29483Y32982
X27282Y30546
X26409Y31269
X26796Y29350
X27071Y27900
X28783Y28845
X29482Y28244
X30270Y28244
X30539Y25967
X31536Y23664
X31685Y22472
X31182Y22357
X29006Y22363
X25984Y21712
X22888Y21779
X20329Y22172
X18098Y21849
X16325Y22312
X17261Y24789
X18361Y25882
X18845Y25392
X20299Y25849
X20101Y27092
X21484Y28967
X22303Y29373
X21628Y30975
X21018Y31753
X19906Y32982
X21669Y34499
X20059Y34889
X17802Y32982
X17126Y31752
X16250Y32341
X16272Y34122
X16951Y35055
X18215Y29329
X18048Y26947
X16115Y27781
X14980Y27312
X14986Y26364
X13853Y26602
X12672Y26602
X12768Y25469
X13458Y23959
X13322Y22362
X11075Y27312
X12323Y28250
X12672Y27783
X7908Y25479
X4893Y22479
X2478Y22469
X5122Y34745
X5439Y36342
X6029Y36342
X4258Y36244
X4356Y40820
X4356Y42543
X4356Y44019
X4839Y44206
X5815Y44214
X4981Y45482
X4356Y45496
X5340Y46578
X6818Y48922
X3093Y49819
X2849Y49197
X10484Y39070
X10484Y38676
X10054Y37637
X9081Y37626
X10050Y36474
X11961Y38971
X22356Y31770
X24315Y27900
X22790Y27312
X23817Y25881
X23534Y25539
X21917Y25471
X31747Y32098
X32560Y31398
X33814Y32098
X34838Y31429
X36908Y32096
X37795Y30767
X38889Y31483
X37795Y28799
X36908Y25852
X35575Y25852
X34342Y24851
X32767Y26113
X33509Y29054
X36566Y24107
X37997Y24086
X37851Y24810
X39879Y24646
X39961Y21319
X41437Y21319
X43172Y23665
X44195Y22752
X43701Y21319
X45950Y23640
X46510Y24617
X46464Y26418
X44362Y24655
X44022Y24655
X43663Y24655
X43645Y26442
X46260Y21319
X38386Y21319
X36221Y21319
T03
X22299Y30300
T04
X32593Y33869
X34881Y35444
X34699Y36783
X35881Y36783
X37062Y36783
X36881Y35444
X37593Y33869
X39319Y34755
X40119Y34755
X40818Y36822
X42102Y36277
X42573Y37692
X44345Y37791
X45920Y37767
X47101Y37767
X47102Y36277
X48381Y39267
X48381Y41267
X47101Y42767
X47101Y43476
X45920Y43476
X45920Y42767
X44345Y39791
X42573Y39692
X42573Y41245
X42573Y42045
X40818Y40759
X38818Y40759
X37062Y41783
X35881Y41783
X34699Y41783
X33223Y41759
X32593Y43121
X33223Y44296
X33223Y45096
X34699Y45936
X35881Y45936
X35077Y44696
X37077Y44696
X37062Y45936
X38818Y45779
X40818Y45779
X42573Y46747
X44345Y46452
X44345Y48452
X45920Y48476
X45625Y49676
X46806Y49676
X47101Y48476
X48281Y48475
X48281Y47255
X50825Y45090
X52825Y45090
X54581Y45477
X54581Y46277
X53281Y47255
X53281Y48475
X56451Y45424
X54581Y44023
X54581Y42023
X56451Y40424
X57829Y42023
X57829Y44023
X52825Y41054
X50825Y41054
X51425Y38889
X52225Y38889
X42573Y48747
X42573Y50202
X42573Y51002
X40818Y51980
X38818Y51980
X37593Y53554
X36881Y55129
X37062Y56468
X35881Y56468
X34699Y56468
X34881Y55129
X32593Y53554
X34699Y50936
X35881Y50936
X37062Y50936
X38818Y49716
X40818Y49716
X42672Y53351
X42672Y54151
X42100Y56035
X40818Y56507
X38818Y56507
X39319Y54539
X40119Y54539
X42573Y57476
X44345Y57574
X45920Y57550
X47101Y57550
X47100Y56035
X46806Y54676
X45625Y54676
X48381Y59050
X48381Y61050
X47101Y62550
X47101Y63259
X45920Y63259
X45920Y62550
X44345Y59574
X42573Y59476
X42573Y60831
X42573Y61631
X40818Y60444
X38818Y60444
X37062Y61468
X35881Y61468
X34699Y61468
X33223Y61444
X32593Y62806
X33223Y63981
X33223Y64781
X34699Y65621
X35881Y65621
X37062Y65621
X37077Y64381
X37593Y62806
X39319Y63791
X40119Y63791
X40818Y65562
X38818Y65562
X38818Y69499
X40818Y69499
X42573Y70083
X42573Y70883
X42573Y68531
X44345Y68235
X45920Y68259
X47101Y68259
X48291Y68260
X48291Y66940
X50825Y64873
X52825Y64873
X54581Y65359
X54581Y66159
X53291Y66940
X53291Y68260
X56451Y65306
X54581Y63905
X54581Y61905
X56451Y60306
X57829Y61905
X57829Y63905
X52825Y60936
X52225Y59165
X51425Y59165
X50825Y60936
X44345Y66235
X42573Y66531
X37062Y70621
X35881Y70621
X34699Y70621
X35077Y64381
X33223Y59444
X39319Y43712
X40119Y43712
X37593Y43121
X33223Y39759
X38818Y36822
X19148Y52924
X19148Y57924
X10979Y68312
X10979Y69112
T05
X2392Y50670
X2392Y48761
T06
X6625Y20204
X7625Y20204
X8625Y20204
X9625Y20204
X9125Y19204
X8125Y19204
X7125Y19204
X6125Y19204
X12625Y19204
X13625Y19204
X14625Y19204
X15625Y19204
X15125Y20204
X14125Y20204
X13125Y20204
X16125Y20204
T07
X21961Y19944
X22961Y19944
X29461Y19944
X30461Y19944
T08
X43180Y30122
X44180Y30122
X45180Y30122
T09
X31058Y30917
X17770Y46369
X15949Y46271
X8814Y50700
X28892Y60592
T10
X3020Y33163
X3020Y31785
T11
X21461Y17122
X22461Y17122
X28961Y17122
X29961Y17122
X27416Y25836
X26416Y25836
X26416Y26836
X27416Y26836
X25416Y26836
X25416Y25836
X30664Y42137
X30664Y43137
X30664Y44137
X30664Y45137
X30664Y46137
X30664Y47137
X29581Y54098
X29581Y55098
X29581Y56098
X29581Y57098
T12
X36615Y16724
X37993Y16724
X39371Y16724
X40749Y16724
X42126Y16724
X43504Y16724
X44882Y16724
X46260Y16724
X47638Y16724
X49016Y16724
T13
X57160Y35444
X57160Y38397
X57160Y55326
X57160Y58279
T14
X58617Y56802
X58617Y36920
T15
X3807Y33911
X1720Y33911
X1720Y31037
X3807Y31037
X1211Y48298
X1211Y51133
T16
X2795Y25152
X5551Y25152
T17
X3287Y18158
X3287Y16988
T18
X19961Y17944
X23961Y17944
X27461Y17944
X31461Y17944
T19
X4699Y66606
X3499Y68535
T20
X11668Y64184
X11668Y24027
X49070Y24027
X49070Y64184
T21
X5625Y16704
X10125Y16704
X12125Y16704
X16625Y16704
T22
X5861Y68535
M30
